<?xml version="1.0" encoding="UTF-8"?>
<svg width="602px" height="276px" viewBox="0 0 602 276" version="1.1" xmlns="http://www.w3.org/2000/svg" xmlns:xlink="http://www.w3.org/1999/xlink">
    <!-- Generator: Sketch 48.2 (47327) - http://www.bohemiancoding.com/sketch -->
    <title>vtv_c</title>
    <desc>Created with Sketch.</desc>
    <defs>
        <polygon id="path-1" points="0.424932632 0.324292991 243.987979 0.324292991 243.987979 275.998835 0.424932632 275.998835"></polygon>
    </defs>
    <g id="Page-1" stroke="none" stroke-width="1" fill="none" fill-rule="evenodd">
        <g id="vtv_c">
            <path d="M0.962369864,86.5243706 L63.8691354,199.076746 C70.2149366,210.865891 83.5069573,211.355046 90.3030723,198.257152 L154.990389,84.9606373 C157.36877,80.9225105 155.244014,77.9823796 151.747612,78.0292135 L110.976098,78.0292135 C102.937738,77.6753571 102.018995,80.5634503 99.3947523,85.2078164 L82.8288986,116.347186 C81.925683,117.796436 79.4593093,122.997606 77.370785,123.015819 C75.4271893,122.872715 72.9271713,117.955151 72.0550119,116.404427 L55.7971314,85.9675671 C52.6268188,81.0317897 52.5931747,78.0292135 45.7737676,78.0292135 L6.27037892,78.0292135 C1.70771682,78.154104 -1.76280495,81.3882481 0.962369864,86.5243706" id="Fill-1" fill="#D62829" fill-rule="nonzero"></path>
            <path d="M265.321433,200.684063 C258.527563,209.840285 246.70225,209.31065 240.407131,197.325404 L202.039468,130.271069 C200.388163,127.315449 200.284794,124.251318 204.874339,124.251318 C216.554937,124.251318 234.564248,124.225482 246.250014,124.251318 C249.482853,124.253902 250.568218,123.850863 252.576144,122.628828 C254.085318,121.714239 255.27922,120.440532 256.315485,119.014394 L258.256222,116.009686 L275.030284,85.8256755 C277.950434,81.3379904 278.221775,78.4495436 283.511639,78 L323.478923,78.1395135 C328.337225,78.1395135 331.427932,82.2861656 329.334727,85.8127576 L265.321433,200.684063 Z" id="Fill-3" fill="#2A387F" fill-rule="nonzero"></path>
            <path d="M140,128.376858 L140,201.977863 C140,204.797308 141.501105,207 144.350878,207 L190.373557,207 C192.476653,207 194.566832,205.201567 194.566832,203.079209 L194.566832,125.228305 C194.566832,121.937224 195.677804,120.076597 200.467904,120.061049 L240.103783,120.086963 C243.922427,120.086963 249.771826,119.918521 247.48529,115.072599 C246.914302,113.865006 230.327225,87.7255323 228.10528,84.5070108 C225.007476,80.3115307 225.35627,78 216.372895,78 C216.372895,78 170.146108,78.025914 169.923913,78.0544194 C163.88074,78.3057855 163.715386,81.2107473 160.633083,85.8467658 L144.748761,112.888047 C141.46235,118.793853 140.204109,118.54767 140,128.376858" id="Fill-5" fill="#199447" fill-rule="nonzero"></path>
            <g id="Group-9" transform="translate(358.000000, 0.000000)">
                <g id="Fill-7-Clipped">
                    <g>
                        <mask id="mask-2" fill="white">
                            <use xlink:href="#path-1"></use>
                        </mask>
                        <g id="path-1"></g>
                        <path d="M113.388133,2.68720654 C118.844154,-0.46334486 125.569017,-0.46334486 131.025038,2.68720654 L235.191796,62.8091505 C240.634869,65.9493467 243.988238,71.7559916 243.988238,78.0389729 L243.988238,82.5667579 C243.988238,86.8356645 241.709501,90.7783841 238.011733,92.9141318 L162.570006,136.460085 C160.728891,137.521487 159.592112,139.486375 159.592112,141.611767 L159.592112,154.66701 C159.592112,159.246571 164.553543,162.109767 168.523206,159.821281 L234.870701,121.525384 C238.923227,119.185122 243.988238,122.107861 243.988238,126.785795 L243.988238,146.571879 C243.988238,150.845964 241.706912,154.791272 238.006554,156.92702 L162.570006,200.470384 C160.728891,201.534375 159.592112,203.499263 159.592112,205.624655 L159.592112,215.710562 C159.592112,220.292711 164.553543,223.155907 168.523206,220.864833 L234.870701,182.568936 C238.923227,180.231263 243.988238,183.154001 243.988238,187.831936 L243.988238,198.28545 C243.988238,204.586552 240.624512,210.411319 235.163312,213.56187 L131.128617,273.608739 C125.607859,276.795534 118.805312,276.795534 113.284554,273.608739 L94.7905326,262.935179 C89.2335221,259.727674 85.8102379,253.801945 85.8102379,247.386936 L85.8102379,127.624562 C85.8102379,121.209552 89.2283432,115.281235 94.7827642,112.071141 L151.155606,79.4576271 C152.030848,78.9502252 153.108069,78.9502252 153.983312,79.4550383 L164.752933,85.6733 C166.915143,86.9210944 169.514975,84.9536178 168.903859,82.5356925 L160.09188,47.7113561 C159.794091,46.5360477 158.779017,45.6817486 157.569733,45.5885523 L98.1905116,41.0530009 C95.1919011,40.8225991 93.9593116,44.8119168 96.5617326,46.3134121 L103.36428,50.2405991 C105.246827,51.3253 105.246827,54.0435243 103.36428,55.130814 L49.6301116,86.1289262 C44.1870379,89.2691224 40.83108,95.0757673 40.83108,101.361337 L40.83108,221.78644 C40.83108,226.233973 36.0146589,229.011739 32.1641116,226.787973 L9.42335368,213.662833 C3.85598526,210.45015 0.424932632,204.511478 0.424932632,198.083524 L0.424932632,78.0363841 C0.424932632,71.7559916 3.77830105,65.9519355 9.21878526,62.8117393 L113.388133,2.68720654 Z" id="Fill-7" fill="#F4BB3A" fill-rule="nonzero" mask="url(#mask-2)"></path>
                    </g>
                </g>
            </g>
            <path d="M602,83.1234235 L602,79.0222303 C602,74.3934438 596.998065,71.5007772 592.997555,73.8138709 L488.820843,134.068664 C483.416781,137.195239 480.085617,142.970176 480.080428,149.220727 L480.000003,265.597932 C479.994814,272.0616 486.986627,276.097818 492.567105,272.856888 L593.03647,214.496753 C598.585816,211.274016 602,205.335342 602,198.90806 L602,188.80062 C602,184.10426 596.925423,181.17001 592.865242,183.51949 L526.392431,221.966227 C522.41527,224.263726 517.447062,221.389253 517.447062,216.791654 L517.447062,206.663422 C517.447062,204.529658 518.583394,202.557031 520.427987,201.491448 L596.009612,157.776575 C599.716959,155.632415 602,151.668968 602,147.380648 L602,127.516631 C602,122.820271 596.925423,119.88602 592.865242,122.232901 L526.392431,160.679638 C522.41527,162.979737 517.447062,160.105263 517.447062,155.505065 L517.447062,142.400999 C517.447062,140.267235 518.583394,138.294608 520.427987,137.226427 L596.014801,93.5089546 C599.716959,91.3673936 602,87.4091444 602,83.1234235" id="Fill-10" fill="#EB941A" fill-rule="nonzero"></path>
        </g>
    </g>
</svg>